<?xml version="1.0" encoding="utf-8"?>
<!-- Generator: Adobe Illustrator 24.3.0, SVG Export Plug-In . SVG Version: 6.00 Build 0)  -->
<svg version="1.1" id="Layer_1" xmlns="http://www.w3.org/2000/svg" xmlns:xlink="http://www.w3.org/1999/xlink" x="0px" y="0px"
	 viewBox="0 0 45 60" style="enable-background:new 0 0 45 60;" xml:space="preserve">
<g>
	<path d="M40.5,1.9c1.4,0,2.6,1.1,2.6,2.6v51.3c0,1.4-1.1,2.6-2.6,2.6h-36c-1.4,0-2.6-1.1-2.6-2.6V4.4c0-1.4,1.1-2.6,2.6-2.6H40.5
		 M40.5,1.1h-36c-1.8,0-3.3,1.5-3.3,3.3v51.3c0,1.8,1.5,3.3,3.3,3.3h36c1.8,0,3.3-1.5,3.3-3.3V4.4C43.8,2.6,42.3,1.1,40.5,1.1
		L40.5,1.1z"/>
</g>
<g>
	<path d="M6.5,6c0-0.1,0-0.2,0.1-0.2c0.1,0,0.2-0.1,0.2-0.1h4.2c0.1,0,0.2,0,0.2,0.1c0,0.1,0.1,0.2,0.1,0.2c0,0.1,0,0.2-0.1,0.3
		c-0.1,0.1-0.1,0.1-0.2,0.1H7.3v3.3h1.9c0.1,0,0.2,0,0.2,0.1c0.1,0.1,0.1,0.2,0.1,0.3c0,0.1,0,0.2-0.1,0.2c0,0.1-0.1,0.1-0.2,0.1
		H7.3v3.8c0,0.1,0,0.2-0.1,0.2c-0.1,0-0.2,0.1-0.3,0.1c-0.1,0-0.2,0-0.3-0.1c-0.1,0-0.1-0.1-0.1-0.2V6z"/>
	<path d="M15.2,6c0-0.2,0.1-0.3,0.3-0.3h2.1c0.4,0,0.7,0,1,0.1c0.3,0.1,0.6,0.2,0.8,0.4c0.2,0.2,0.4,0.4,0.6,0.7
		c0.1,0.3,0.2,0.7,0.2,1.1c0,0.4,0,0.7-0.1,1c-0.1,0.3-0.2,0.5-0.4,0.7c-0.2,0.2-0.4,0.3-0.6,0.4c-0.2,0.1-0.5,0.2-0.7,0.2l1.8,3.6
		c0,0,0,0.1,0,0.2c0,0.1,0,0.2-0.1,0.3c-0.1,0.1-0.2,0.1-0.3,0.1c-0.1,0-0.2,0-0.2-0.1c-0.1-0.1-0.1-0.2-0.2-0.3l-1.8-3.6H16v3.7
		c0,0.1,0,0.2-0.1,0.2c-0.1,0.1-0.2,0.1-0.3,0.1c-0.1,0-0.2,0-0.3-0.1c-0.1-0.1-0.1-0.1-0.1-0.2V6z M16,6.4v3.4h1.6
		c0.5,0,1-0.1,1.3-0.4c0.3-0.3,0.5-0.7,0.5-1.3c0-0.6-0.2-1-0.5-1.3c-0.3-0.3-0.8-0.4-1.3-0.4H16z"/>
	<path d="M24.1,14.5c-0.1,0-0.2,0-0.3-0.1c-0.1-0.1-0.1-0.1-0.1-0.2c0,0,0-0.1,0-0.1l2.5-8.1c0-0.1,0.1-0.2,0.2-0.2
		c0.1,0,0.2-0.1,0.3-0.1c0.1,0,0.2,0,0.3,0.1c0.1,0,0.1,0.1,0.2,0.2l2.5,8.1c0,0,0,0,0,0c0,0,0,0,0,0c0,0.1-0.1,0.2-0.2,0.2
		c-0.1,0.1-0.2,0.1-0.3,0.1c-0.2,0-0.3-0.1-0.3-0.2l-0.6-1.8h-3.3l-0.6,1.8c0,0.1-0.1,0.1-0.1,0.2C24.2,14.4,24.1,14.5,24.1,14.5z
		 M28,11.7l-1.5-4.8l-1.5,4.8H28z"/>
	<path d="M38.2,14.5c-0.1,0-0.2,0-0.3-0.1c-0.1-0.1-0.2-0.2-0.2-0.3l-3.3-6.5v6.6c0,0.1,0,0.2-0.1,0.2c-0.1,0.1-0.2,0.1-0.3,0.1
		c-0.1,0-0.2,0-0.3-0.1c-0.1-0.1-0.1-0.1-0.1-0.2V6c0-0.1,0-0.2,0.1-0.2c0.1,0,0.2-0.1,0.3-0.1c0.1,0,0.3,0.1,0.4,0.2
		c0.1,0.1,0.2,0.2,0.3,0.4l3.2,6.4V6c0-0.1,0-0.2,0.1-0.2c0.1,0,0.2-0.1,0.3-0.1c0.1,0,0.2,0,0.3,0.1c0.1,0,0.1,0.1,0.1,0.2v8.2
		c0,0.1,0,0.2-0.1,0.2C38.3,14.4,38.3,14.5,38.2,14.5z"/>
	<path d="M7.4,24.7h3.9c0.1,0,0.2,0,0.2,0.1c0,0.1,0.1,0.2,0.1,0.2c0,0.1,0,0.2-0.1,0.3c0,0.1-0.1,0.1-0.2,0.1H6.7
		c-0.1,0-0.2,0-0.2-0.1c-0.1-0.1-0.1-0.1-0.1-0.2c0-0.1,0-0.2,0.1-0.3l4-7.5H6.8c-0.1,0-0.2,0-0.2-0.1c-0.1-0.1-0.1-0.2-0.1-0.3
		c0-0.1,0-0.2,0.1-0.2c0-0.1,0.1-0.1,0.2-0.1h4.4c0.1,0,0.2,0,0.2,0.1c0,0,0.1,0.1,0.1,0.2c0,0.1,0,0.2-0.1,0.3L7.4,24.7z"/>
	<path d="M14.2,17c0-0.1,0-0.2,0.1-0.2c0.1,0,0.2-0.1,0.3-0.1c0.1,0,0.2,0,0.3,0.1c0.1,0,0.1,0.1,0.1,0.2v8.2c0,0.1,0,0.2-0.1,0.2
		c-0.1,0.1-0.2,0.1-0.3,0.1c-0.1,0-0.2,0-0.3-0.1c-0.1-0.1-0.1-0.1-0.1-0.2V17z"/>
	<path d="M20.2,24.8c0.6,0,1-0.1,1.3-0.4c0.3-0.3,0.5-0.7,0.5-1.2c0-0.4-0.1-0.8-0.3-1c-0.2-0.3-0.4-0.5-0.7-0.6
		c-0.3-0.2-0.6-0.3-1-0.4c-0.3-0.1-0.7-0.3-1-0.4c-0.3-0.2-0.5-0.4-0.7-0.7c-0.2-0.3-0.3-0.7-0.3-1.2c0-0.4,0.1-0.8,0.2-1.1
		c0.2-0.3,0.4-0.5,0.6-0.7c0.2-0.2,0.5-0.3,0.8-0.3c0.3-0.1,0.6-0.1,0.9-0.1c0.2,0,0.5,0,0.7,0.1c0.2,0,0.5,0.1,0.7,0.2
		c0.2,0.1,0.4,0.1,0.5,0.2c0.1,0.1,0.2,0.2,0.2,0.3c0,0.1,0,0.2-0.1,0.3c-0.1,0.1-0.1,0.2-0.3,0.2c-0.1,0-0.1,0-0.2-0.1
		c-0.1,0-0.2-0.1-0.3-0.2c-0.1-0.1-0.3-0.1-0.5-0.2c-0.2,0-0.4-0.1-0.7-0.1c-0.2,0-0.4,0-0.6,0.1c-0.2,0-0.4,0.1-0.6,0.2
		c-0.2,0.1-0.3,0.3-0.4,0.4c-0.1,0.2-0.1,0.4-0.1,0.7c0,0.4,0.1,0.7,0.3,0.9c0.2,0.2,0.4,0.4,0.7,0.5c0.3,0.1,0.6,0.3,1,0.4
		c0.3,0.1,0.7,0.3,1,0.5c0.3,0.2,0.5,0.5,0.7,0.8c0.2,0.3,0.3,0.8,0.3,1.3c0,0.4-0.1,0.8-0.2,1.1c-0.1,0.3-0.3,0.6-0.5,0.8
		c-0.2,0.2-0.5,0.4-0.8,0.4c-0.3,0.1-0.7,0.1-1,0.1c-0.4,0-0.7,0-1-0.1c-0.3-0.1-0.6-0.2-0.8-0.3c-0.2-0.1-0.4-0.3-0.5-0.4
		c-0.1-0.1-0.2-0.3-0.2-0.4c0-0.1,0-0.2,0.1-0.3s0.2-0.2,0.2-0.2c0.1,0,0.2,0.1,0.2,0.2c0.1,0.1,0.2,0.2,0.3,0.3
		c0.1,0.1,0.3,0.2,0.6,0.3C19.6,24.8,19.9,24.8,20.2,24.8z"/>
	<path d="M25.7,17c0-0.1,0-0.2,0.1-0.2c0.1,0,0.2-0.1,0.3-0.1c0.1,0,0.2,0,0.3,0.1c0.1,0,0.1,0.1,0.1,0.2v4.2l3.5-4.4
		c0.1-0.1,0.1-0.1,0.3-0.1c0.1,0,0.2,0,0.3,0.1c0.1,0.1,0.1,0.2,0.1,0.3c0,0,0,0.1,0,0.1c0,0,0,0.1,0,0.1L28,20.5l3,4.4
		c0,0.1,0,0.1,0,0.2c0,0.1,0,0.2-0.1,0.3c-0.1,0.1-0.2,0.1-0.3,0.1c-0.1,0-0.2-0.1-0.3-0.2l-2.8-4.2l-1,1.2v2.8c0,0.1,0,0.2-0.1,0.2
		c-0.1,0.1-0.2,0.1-0.3,0.1c-0.1,0-0.2,0-0.3-0.1c-0.1-0.1-0.1-0.1-0.1-0.2V17z"/>
	<path d="M33.2,25.5c-0.1,0-0.2,0-0.3-0.1c-0.1-0.1-0.1-0.1-0.1-0.2c0,0,0-0.1,0-0.1l2.5-8.1c0-0.1,0.1-0.2,0.2-0.2
		c0.1,0,0.2-0.1,0.3-0.1c0.1,0,0.2,0,0.3,0.1c0.1,0,0.1,0.1,0.2,0.2l2.5,8.1c0,0,0,0,0,0c0,0,0,0,0,0c0,0.1-0.1,0.2-0.2,0.2
		c-0.1,0.1-0.2,0.1-0.3,0.1c-0.2,0-0.3-0.1-0.3-0.2l-0.6-1.8H34l-0.6,1.8c0,0.1-0.1,0.1-0.1,0.2C33.3,25.4,33.2,25.5,33.2,25.5z
		 M37.2,22.7l-1.5-4.8l-1.5,4.8H37.2z"/>
	<path d="M6.4,31.5c0-0.1,0-0.2,0.1-0.2c0.1,0,0.2-0.1,0.2-0.1h2c0.3,0,0.7,0,0.9,0.1c0.3,0.1,0.6,0.2,0.8,0.3
		c0.2,0.2,0.4,0.4,0.5,0.6c0.1,0.3,0.2,0.6,0.2,1c0,0.5-0.1,0.9-0.3,1.3c-0.2,0.3-0.4,0.6-0.7,0.7c0.2,0.1,0.4,0.2,0.5,0.3
		c0.2,0.1,0.3,0.2,0.4,0.4c0.1,0.2,0.2,0.4,0.3,0.6c0.1,0.2,0.1,0.5,0.1,0.8v0.2c0,0.5-0.1,0.8-0.2,1.2c-0.1,0.3-0.3,0.6-0.5,0.8
		c-0.2,0.2-0.5,0.3-0.8,0.4C9.7,39.9,9.4,40,9.1,40H6.8c-0.1,0-0.2,0-0.3-0.1c-0.1-0.1-0.1-0.1-0.1-0.2V31.5z M7.2,34.9h1.6
		c0.6,0,1-0.1,1.2-0.3c0.3-0.2,0.4-0.6,0.4-1.2c0-0.3,0-0.5-0.1-0.7c-0.1-0.2-0.2-0.3-0.3-0.4C9.8,32.1,9.6,32,9.4,32
		c-0.2,0-0.4-0.1-0.7-0.1H7.2V34.9z M9,39.2c0.5,0,0.9-0.1,1.2-0.4c0.3-0.3,0.4-0.7,0.4-1.4v-0.2c0-0.6-0.1-1.1-0.4-1.3
		c-0.3-0.3-0.7-0.4-1.2-0.4H7.2v3.7H9z"/>
	<path d="M13,40c-0.1,0-0.2,0-0.3-0.1c-0.1-0.1-0.1-0.1-0.1-0.2c0,0,0-0.1,0-0.1l2.5-8.1c0-0.1,0.1-0.2,0.2-0.2
		c0.1,0,0.2-0.1,0.3-0.1c0.1,0,0.2,0,0.3,0.1c0.1,0,0.1,0.1,0.2,0.2l2.5,8.1c0,0,0,0,0,0c0,0,0,0,0,0c0,0.1-0.1,0.2-0.2,0.2
		C18.3,39.9,18.2,40,18,40c-0.2,0-0.3-0.1-0.3-0.2l-0.6-1.8h-3.3l-0.6,1.8c0,0.1-0.1,0.1-0.1,0.2C13.1,40,13.1,40,13,40z M17,37.2
		l-1.5-4.8l-1.5,4.8H17z"/>
	<path d="M24.1,31.5c0-0.1,0-0.2,0.1-0.2c0.1,0,0.2-0.1,0.3-0.1c0.1,0,0.2,0,0.3,0.1c0.1,0,0.1,0.1,0.1,0.2v6c0,0.5-0.1,0.9-0.2,1.2
		c-0.1,0.3-0.3,0.6-0.5,0.8c-0.2,0.2-0.5,0.4-0.8,0.4c-0.3,0.1-0.6,0.1-1,0.1c-0.4,0-0.7,0-1-0.1c-0.3-0.1-0.6-0.2-0.8-0.4
		c-0.2-0.2-0.4-0.5-0.5-0.8c-0.1-0.3-0.2-0.7-0.2-1.2v-6c0-0.1,0-0.2,0.1-0.2c0.1,0,0.2-0.1,0.3-0.1c0.1,0,0.2,0,0.3,0.1
		c0.1,0,0.1,0.1,0.1,0.2v6c0,0.6,0.2,1.1,0.5,1.4c0.3,0.3,0.7,0.4,1.3,0.4c0.5,0,1-0.1,1.3-0.4c0.3-0.3,0.5-0.8,0.5-1.4V31.5z"/>
	<path d="M27.8,35.2h1.9c0.1,0,0.2,0,0.2,0.1c0.1,0.1,0.1,0.2,0.1,0.3c0,0.1,0,0.2-0.1,0.2c0,0.1-0.1,0.1-0.2,0.1h-1.9v3.3h3.8
		c0.1,0,0.2,0,0.2,0.1c0.1,0.1,0.1,0.2,0.1,0.3c0,0.1,0,0.2-0.1,0.2c0,0.1-0.1,0.1-0.2,0.1h-4.3c-0.1,0-0.2,0-0.2-0.1
		c-0.1-0.1-0.1-0.1-0.1-0.2v-8.2c0-0.1,0-0.2,0.1-0.2c0.1,0,0.2-0.1,0.2-0.1h4.3c0.1,0,0.2,0,0.2,0.1c0,0.1,0.1,0.2,0.1,0.2
		c0,0.1,0,0.2-0.1,0.3c-0.1,0.1-0.1,0.1-0.2,0.1h-3.8V35.2z"/>
	<path d="M33.4,31.5c0-0.2,0.1-0.3,0.3-0.3h2.1c0.4,0,0.7,0,1,0.1c0.3,0.1,0.6,0.2,0.8,0.4c0.2,0.2,0.4,0.4,0.6,0.7
		c0.1,0.3,0.2,0.7,0.2,1.1c0,0.4,0,0.7-0.1,1c-0.1,0.3-0.2,0.5-0.4,0.7c-0.2,0.2-0.4,0.3-0.6,0.4s-0.5,0.2-0.7,0.2l1.8,3.6
		c0,0,0,0.1,0,0.2c0,0.1,0,0.2-0.1,0.3C38.2,40,38.1,40,38,40c-0.1,0-0.2,0-0.2-0.1c-0.1-0.1-0.1-0.2-0.2-0.3L35.7,36h-1.5v3.7
		c0,0.1,0,0.2-0.1,0.2C34,39.9,33.9,40,33.8,40c-0.1,0-0.2,0-0.3-0.1c-0.1-0.1-0.1-0.1-0.1-0.2V31.5z M34.2,31.9v3.4h1.6
		c0.5,0,1-0.1,1.3-0.4c0.3-0.3,0.5-0.7,0.5-1.3c0-0.6-0.2-1-0.5-1.3c-0.3-0.3-0.8-0.4-1.3-0.4H34.2z"/>
	<g>
		<path d="M38.8,27.9H6.2c-0.2,0-0.4-0.2-0.4-0.4c0-0.2,0.2-0.4,0.4-0.4h32.5c0.2,0,0.4,0.2,0.4,0.4C39.2,27.7,39,27.9,38.8,27.9z"
			/>
	</g>
	<g>
		<path d="M38.8,42.9H6.2c-0.2,0-0.4-0.2-0.4-0.4s0.2-0.4,0.4-0.4h32.5c0.2,0,0.4,0.2,0.4,0.4S39,42.9,38.8,42.9z"/>
	</g>
	<g>
		<path d="M6.8,47.7c0-0.3,0.1-0.6,0.2-0.8c0.1-0.2,0.3-0.5,0.5-0.6c0.2-0.2,0.4-0.3,0.7-0.4c0.3-0.1,0.6-0.2,0.9-0.2
			c0.3,0,0.7,0.1,1,0.2c0.3,0.1,0.5,0.3,0.8,0.5c0.2,0.2,0.4,0.4,0.5,0.7c0.1,0.3,0.2,0.6,0.2,0.9c0,0.4-0.1,0.8-0.3,1.2
			c-0.2,0.3-0.4,0.6-0.7,0.9c-0.3,0.3-0.6,0.5-1,0.8c-0.4,0.2-0.7,0.5-1,0.7c-0.3,0.2-0.5,0.5-0.7,0.7c-0.2,0.2-0.3,0.5-0.3,0.7v0.7
			h3.8c0.1,0,0.1,0,0.2,0.1c0.1,0.1,0.1,0.2,0.1,0.3s0,0.2-0.1,0.3c-0.1,0.1-0.1,0.1-0.2,0.1H7c-0.1,0-0.2,0-0.2-0.1
			c-0.1-0.1-0.1-0.1-0.1-0.2V53c0-0.3,0.1-0.6,0.3-0.9c0.2-0.3,0.5-0.5,0.8-0.8c0.3-0.3,0.6-0.5,1-0.7c0.4-0.2,0.7-0.5,1-0.7
			c0.3-0.3,0.5-0.5,0.8-0.8c0.2-0.3,0.3-0.6,0.3-1c0-0.2,0-0.4-0.1-0.6c-0.1-0.2-0.2-0.4-0.3-0.5c-0.1-0.1-0.3-0.3-0.5-0.4
			c-0.2-0.1-0.4-0.1-0.7-0.1c-0.4,0-0.8,0.1-1,0.3c-0.3,0.2-0.4,0.6-0.4,1.1c0,0.1,0,0.2-0.1,0.2c-0.1,0.1-0.2,0.1-0.3,0.1
			c-0.1,0-0.2,0-0.3-0.1C6.8,48,6.8,47.9,6.8,47.7z"/>
		<path d="M19.3,54.5c-0.4,0-0.7,0-1-0.1s-0.6-0.2-0.8-0.4c-0.2-0.2-0.4-0.5-0.5-0.8c-0.1-0.3-0.2-0.7-0.2-1.2v-3.7
			c0-0.5,0.1-0.9,0.2-1.2c0.1-0.3,0.3-0.6,0.5-0.8c0.2-0.2,0.5-0.4,0.8-0.4c0.3-0.1,0.6-0.1,1-0.1c0.4,0,0.7,0,1,0.1
			c0.3,0.1,0.6,0.2,0.8,0.4c0.2,0.2,0.4,0.5,0.5,0.8c0.1,0.3,0.2,0.7,0.2,1.2V52c0,0.5-0.1,0.9-0.2,1.2c-0.1,0.3-0.3,0.6-0.5,0.8
			c-0.2,0.2-0.5,0.4-0.8,0.4C20,54.5,19.7,54.5,19.3,54.5z M21,48.3c0-0.6-0.2-1.1-0.5-1.4c-0.3-0.3-0.7-0.4-1.3-0.4
			c-0.5,0-1,0.1-1.3,0.4c-0.3,0.3-0.5,0.8-0.5,1.4V52c0,0.6,0.1,1.1,0.5,1.4c0.3,0.3,0.7,0.4,1.3,0.4c0.5,0,1-0.1,1.3-0.4
			c0.3-0.3,0.5-0.8,0.5-1.4V48.3z"/>
		<path d="M27.4,47.7c0-0.3,0.1-0.6,0.2-0.8c0.1-0.2,0.3-0.5,0.5-0.6c0.2-0.2,0.4-0.3,0.7-0.4c0.3-0.1,0.6-0.2,0.9-0.2
			c0.3,0,0.7,0.1,1,0.2c0.3,0.1,0.5,0.3,0.8,0.5c0.2,0.2,0.4,0.4,0.5,0.7C32,47.4,32,47.7,32,48c0,0.4-0.1,0.8-0.3,1.2
			c-0.2,0.3-0.4,0.6-0.7,0.9c-0.3,0.3-0.6,0.5-1,0.8c-0.4,0.2-0.7,0.5-1,0.7c-0.3,0.2-0.5,0.5-0.7,0.7C28.1,52.5,28,52.7,28,53v0.7
			h3.8c0.1,0,0.1,0,0.2,0.1c0.1,0.1,0.1,0.2,0.1,0.3s0,0.2-0.1,0.3c-0.1,0.1-0.1,0.1-0.2,0.1h-4.3c-0.1,0-0.2,0-0.2-0.1
			c-0.1-0.1-0.1-0.1-0.1-0.2V53c0-0.3,0.1-0.6,0.3-0.9c0.2-0.3,0.5-0.5,0.8-0.8c0.3-0.3,0.6-0.5,1-0.7c0.4-0.2,0.7-0.5,1-0.7
			c0.3-0.3,0.5-0.5,0.8-0.8c0.2-0.3,0.3-0.6,0.3-1c0-0.2,0-0.4-0.1-0.6c-0.1-0.2-0.2-0.4-0.3-0.5c-0.1-0.1-0.3-0.3-0.5-0.4
			c-0.2-0.1-0.4-0.1-0.7-0.1c-0.4,0-0.8,0.1-1,0.3c-0.3,0.2-0.4,0.6-0.4,1.1c0,0.1,0,0.2-0.1,0.2c-0.1,0.1-0.2,0.1-0.3,0.1
			c-0.1,0-0.2,0-0.3-0.1C27.4,48,27.4,47.9,27.4,47.7z"/>
		<path d="M37.9,47l-0.5,0.8c-0.1,0.1-0.1,0.1-0.2,0.1c-0.1,0-0.2,0-0.2-0.1c-0.1-0.1-0.1-0.2-0.1-0.2c0-0.1,0-0.1,0.1-0.2
			s0.1-0.1,0.1-0.2l1-1.4c0,0,0.1-0.1,0.1-0.1c0,0,0.1-0.1,0.2-0.1c0.1,0,0.2,0,0.2,0.1c0.1,0.1,0.1,0.1,0.1,0.2v8.2
			c0,0.1,0,0.2-0.1,0.2c-0.1,0.1-0.2,0.1-0.3,0.1c-0.1,0-0.2,0-0.3-0.1c-0.1-0.1-0.1-0.1-0.1-0.2V47z"/>
	</g>
</g>
</svg>
